<svg width="68" height="51" viewBox="0 0 68 51" fill="none" xmlns="http://www.w3.org/2000/svg">
<path d="M12.9865 0.564102L12.9866 5.62694C12.4224 9.02564 10.7301 12.4102 12.9866 15.7949C14.6789 18.0513 15.6077 19.5095 24.2686 19.7436C45.1404 20.3077 41.7558 12.4102 38.9353 6.17576V1.1282L32.7302 4.51282C28.6686 2.70769 22.5763 3.76068 19.1917 4.51282L12.9865 0.564102Z" fill="black"/>
<path d="M12.9866 5.62694L13.5431 5.71931L13.5507 5.67344L13.5507 5.62694L12.9866 5.62694ZM12.9865 0.564102L13.2894 0.0881902C13.1157 -0.0223451 12.8956 -0.0294676 12.7151 0.0696075C12.5346 0.168683 12.4224 0.358217 12.4224 0.564104L12.9865 0.564102ZM19.1917 4.51282L18.8889 4.98873C19.0151 5.06905 19.168 5.09594 19.3141 5.06349L19.1917 4.51282ZM32.7302 4.51282L32.5011 5.0283C32.6615 5.09963 32.8461 5.09214 33.0003 5.00804L32.7302 4.51282ZM38.9353 1.1282H39.4994C39.4994 0.929112 39.3944 0.744763 39.2232 0.643133C39.052 0.541504 38.8399 0.537646 38.6651 0.632982L38.9353 1.1282ZM38.9353 6.17576H38.3712V6.29743L38.4213 6.40828L38.9353 6.17576ZM24.2686 19.7436L24.2839 19.1797L24.2686 19.7436ZM12.9866 15.7949L12.5172 16.1078C12.523 16.1165 12.529 16.125 12.5353 16.1333L12.9866 15.7949ZM12.9866 5.62694L13.5507 5.62694L13.5507 0.564101L12.9865 0.564102L12.4224 0.564104L12.4225 5.62694L12.9866 5.62694ZM12.9865 0.564102L12.6837 1.04001L18.8889 4.98873L19.1917 4.51282L19.4946 4.03691L13.2894 0.0881902L12.9865 0.564102ZM19.1917 4.51282L19.3141 5.06349C20.9938 4.69022 23.3284 4.24635 25.7373 4.11714C28.1571 3.98734 30.5904 4.17911 32.5011 5.0283L32.7302 4.51282L32.9593 3.99733C30.8084 3.0414 28.1648 2.8571 25.6769 2.99055C23.178 3.12459 20.7743 3.58328 19.0693 3.96215L19.1917 4.51282ZM32.7302 4.51282L33.0003 5.00804L39.2054 1.62343L38.9353 1.1282L38.6651 0.632982L32.46 4.0176L32.7302 4.51282ZM38.9353 1.1282H38.3712V6.17576H38.9353H39.4994V1.1282H38.9353ZM38.9353 6.17576L38.4213 6.40828C39.13 7.97471 39.8469 9.58941 40.2202 11.1375C40.5933 12.6845 40.6011 14.0788 39.9872 15.2467C39.378 16.4058 38.0911 17.4639 35.6027 18.1972C33.1103 18.9317 29.4755 19.32 24.2839 19.1797L24.2686 19.7436L24.2534 20.3075C29.4977 20.4492 33.2667 20.0618 35.9217 19.2794C38.5808 18.4958 40.1849 17.2956 40.9859 15.7716C41.7823 14.2563 41.7196 12.5426 41.317 10.873C40.9146 9.20447 40.1508 7.49406 39.4492 5.94325L38.9353 6.17576ZM12.9866 15.7949L13.4559 15.482C12.4261 13.9372 12.2878 12.3944 12.4886 10.7861C12.5901 9.97333 12.7771 9.15314 12.9799 8.30468C13.1805 7.46555 13.398 6.59336 13.5431 5.71931L12.9866 5.62694L12.4301 5.53457C12.2931 6.35987 12.0875 7.18527 11.8826 8.0424C11.68 8.89021 11.4792 9.76497 11.3691 10.6463C11.1468 12.4261 11.2906 14.2679 12.5172 16.1078L12.9866 15.7949ZM24.2686 19.7436L24.2839 19.1797C19.9646 19.0629 17.6619 18.6402 16.2428 18.0118C14.8663 17.4023 14.2883 16.5904 13.4378 15.4564L12.9866 15.7949L12.5353 16.1333C13.3771 17.2557 14.1096 18.3011 15.786 19.0434C17.4196 19.7667 19.9117 20.1901 24.2534 20.3075L24.2686 19.7436Z" fill="black"/>
<path d="M66.5641 29.8974C66.5641 21.4359 58.1026 20.6837 53.0257 21.4359L53.0256 17.7692C29.8974 25.6666 9.58977 20.5897 0.56413 17.7692L0.564117 45.6923C9.02565 49.0769 30.4615 53.5897 53.0256 45.6923V40.0512C58.8547 40.2393 66.5641 38.5191 66.5641 29.8974Z" fill="black"/>
<path d="M53.0256 40.0512L52.4615 40.0512V40.0512H53.0256ZM53.0256 45.6923L53.212 46.2247C53.4382 46.1455 53.5897 45.932 53.5897 45.6923H53.0256ZM0.564117 45.6923H1.51396e-05C1.50204e-05 45.9229 0.140449 46.1303 0.354615 46.216L0.564117 45.6923ZM0.56413 17.7692L0.388842 17.233C0.156914 17.3089 2.8193e-05 17.5252 2.80738e-05 17.7692L0.56413 17.7692ZM53.0256 17.7692L53.5897 17.7692C53.5897 17.5411 53.4524 17.3355 53.2417 17.2481L53.0256 17.7692ZM53.0256 25.3846L53.5897 25.3846L53.5898 21.4359L53.0257 21.4359L52.4616 21.4359L52.4615 25.3846L53.0256 25.3846ZM53.0257 21.4359L53.1083 21.9939C55.5968 21.6252 58.8645 21.6361 61.4808 22.7318C62.7797 23.2758 63.9014 24.0798 64.7003 25.2229C65.4972 26.3633 66 27.8799 66 29.8974H66.5641H67.1282C67.1282 27.6841 66.5733 25.9336 65.6251 24.5767C64.6787 23.2225 63.3677 22.2989 61.9166 21.6912C59.0329 20.4835 55.5314 20.4944 52.943 20.8779L53.0257 21.4359ZM66.5641 29.8974H66C66 33.9994 64.1871 36.3988 61.7056 37.7856C59.1785 39.1978 55.9132 39.58 53.0438 39.4874L53.0256 40.0512L53.0074 40.6151C55.9672 40.7105 59.471 40.3267 62.256 38.7704C65.0864 37.1887 67.1282 34.4171 67.1282 29.8974H66.5641ZM53.0256 45.6923H53.5897V40.0512H53.0256H52.4615V45.6923H53.0256ZM0.564117 45.6923L0.354615 46.216C8.91206 49.639 30.4912 54.177 53.212 46.2247L53.0256 45.6923L52.8393 45.1598C30.4319 53.0024 9.13924 48.5148 0.77362 45.1685L0.564117 45.6923ZM0.56413 17.7692L2.80738e-05 17.7692L1.51396e-05 45.6923H0.564117H1.12822L1.12823 17.7692L0.56413 17.7692ZM0.56413 17.7692L0.395873 18.3076C9.46556 21.1419 29.9123 26.2577 53.2079 18.303L53.0256 17.7692L52.8434 17.2354C29.8826 25.0756 9.71398 20.0375 0.732388 17.2308L0.56413 17.7692ZM53.0257 21.4359L53.5898 21.4359L53.5897 17.7692L53.0256 17.7692L52.4615 17.7692L52.4616 21.4359L53.0257 21.4359ZM12.4103 15.2308L12.3013 14.6773C9.09402 15.309 3.81134 16.1141 0.388842 17.233L0.56413 17.7692L0.739419 18.3054C4.07499 17.2149 9.21744 16.4346 12.5193 15.7842L12.4103 15.2308ZM53.0256 40.0512L53.5897 40.0512L53.5898 34.9743L53.0257 34.9743L52.4616 34.9743L52.4615 40.0512L53.0256 40.0512ZM53.0256 17.7692L53.2417 17.2481C52.0218 16.7423 49.9674 16.3053 47.7202 15.8958C45.4115 15.4751 42.9663 15.0945 40.7186 14.6762L40.6154 15.2308L40.5122 15.7853C42.7029 16.1931 45.3083 16.6031 47.5179 17.0057C49.789 17.4196 51.7206 17.8388 52.8096 18.2903L53.0256 17.7692Z" fill="black"/>
<path d="M61.5641 30.744C61.5641 35.8855 54.0975 35.8854 53.5641 35.3142L53.5641 25.6026C56.7641 25.6026 61.5641 24.7798 61.5641 30.744Z" fill="white"/>
<circle cx="19.7558" cy="9.58974" r="1.69231" fill="white"/>
<path d="M20.8718 9.58974C20.8718 10.2128 20.3667 10.7179 19.7436 10.7179C19.1205 10.7179 18.6154 10.2128 18.6154 9.58974C18.6154 8.96664 19.1205 8.46153 19.7436 8.46153C20.3667 8.46153 20.8718 8.96664 20.8718 9.58974Z" fill="black"/>
<circle cx="31.0378" cy="9.58974" r="1.69231" fill="white"/>
<circle cx="31.0256" cy="9.58974" r="1.1282" fill="black"/>
<path d="M25.6635 12.064C25.5769 12.2145 25.3598 12.2148 25.2727 12.0645L25.0164 11.622C24.9293 11.4717 25.0376 11.2835 25.2113 11.2833L25.7227 11.2826C25.8964 11.2823 26.0052 11.4702 25.9186 11.6208L25.6635 12.064Z" fill="white"/>
</svg>
