<svg width="127" height="63" viewBox="0 0 127 63" fill="none" xmlns="http://www.w3.org/2000/svg">
<path d="M10.666 10.612C10.582 10.48 10.504 10.3 10.432 10.072C10.36 9.844 10.324 9.604 10.324 9.352C10.324 8.884 10.426 8.548 10.63 8.344C10.846 8.14 11.122 8.038 11.458 8.038H19.306C19.39 8.17 19.468 8.35 19.54 8.578C19.612 8.806 19.648 9.046 19.648 9.298C19.648 9.766 19.54 10.102 19.324 10.306C19.12 10.51 18.85 10.612 18.514 10.612H16.516V18.928C16.384 18.964 16.174 19 15.886 19.036C15.61 19.072 15.334 19.09 15.058 19.09C14.782 19.09 14.536 19.066 14.32 19.018C14.116 18.982 13.942 18.91 13.798 18.802C13.654 18.694 13.546 18.544 13.474 18.352C13.402 18.16 13.366 17.908 13.366 17.596V10.612H10.666ZM29.578 18.982C29.458 19.018 29.266 19.054 29.002 19.09C28.75 19.126 28.486 19.144 28.21 19.144C27.946 19.144 27.706 19.126 27.49 19.09C27.286 19.054 27.112 18.982 26.968 18.874C26.824 18.766 26.71 18.622 26.626 18.442C26.554 18.25 26.518 18.004 26.518 17.704V13.708C26.518 13.216 26.392 12.874 26.14 12.682C25.9 12.478 25.6 12.376 25.24 12.376C25 12.376 24.772 12.406 24.556 12.466C24.34 12.526 24.166 12.598 24.034 12.682V18.982C23.914 19.018 23.722 19.054 23.458 19.09C23.206 19.126 22.942 19.144 22.666 19.144C22.402 19.144 22.162 19.126 21.946 19.09C21.742 19.054 21.568 18.982 21.424 18.874C21.28 18.766 21.166 18.622 21.082 18.442C21.01 18.25 20.974 18.004 20.974 17.704V7.264C21.106 7.24 21.298 7.21 21.55 7.174C21.814 7.126 22.078 7.102 22.342 7.102C22.606 7.102 22.84 7.12 23.044 7.156C23.26 7.192 23.44 7.264 23.584 7.372C23.728 7.48 23.836 7.63 23.908 7.822C23.992 8.002 24.034 8.242 24.034 8.542V10.306C24.19 10.246 24.424 10.18 24.736 10.108C25.06 10.024 25.414 9.982 25.798 9.982C26.986 9.982 27.91 10.282 28.57 10.882C29.242 11.47 29.578 12.352 29.578 13.528V18.982ZM36.0933 19.288C35.3853 19.288 34.7253 19.192 34.1133 19C33.5133 18.796 32.9853 18.496 32.5293 18.1C32.0853 17.704 31.7313 17.206 31.4673 16.606C31.2153 16.006 31.0893 15.304 31.0893 14.5C31.0893 13.708 31.2153 13.03 31.4673 12.466C31.7313 11.89 32.0733 11.422 32.4933 11.062C32.9133 10.69 33.3933 10.42 33.9333 10.252C34.4733 10.072 35.0253 9.982 35.5893 9.982C36.2253 9.982 36.8013 10.078 37.3173 10.27C37.8453 10.462 38.2953 10.726 38.6673 11.062C39.0513 11.398 39.3453 11.8 39.5493 12.268C39.7653 12.736 39.8733 13.246 39.8733 13.798C39.8733 14.206 39.7593 14.518 39.5312 14.734C39.3033 14.95 38.9853 15.088 38.5773 15.148L34.1313 15.814C34.2633 16.21 34.5333 16.51 34.9413 16.714C35.3493 16.906 35.8173 17.002 36.3453 17.002C36.8373 17.002 37.2993 16.942 37.7313 16.822C38.1753 16.69 38.5353 16.54 38.8113 16.372C39.0033 16.492 39.1653 16.66 39.2973 16.876C39.4293 17.092 39.4953 17.32 39.4953 17.56C39.4953 18.1 39.2433 18.502 38.7393 18.766C38.3553 18.97 37.9233 19.108 37.4433 19.18C36.9633 19.252 36.5133 19.288 36.0933 19.288ZM35.5893 12.214C35.3013 12.214 35.0493 12.262 34.8333 12.358C34.6293 12.454 34.4613 12.58 34.3293 12.736C34.1973 12.88 34.0953 13.048 34.0233 13.24C33.9633 13.42 33.9273 13.606 33.9153 13.798L36.9933 13.294C36.9573 13.054 36.8253 12.814 36.5973 12.574C36.3693 12.334 36.0333 12.214 35.5893 12.214Z" fill="black"/>
<path d="M8.712 33.318C8.556 33.45 8.352 33.558 8.1 33.642C7.86 33.714 7.578 33.75 7.254 33.75C6.822 33.75 6.462 33.696 6.174 33.588C5.898 33.48 5.718 33.294 5.634 33.03C5.298 31.974 5.022 31.122 4.806 30.474C4.59 29.814 4.422 29.238 4.302 28.746H4.212C4.176 29.454 4.146 30.102 4.122 30.69C4.11 31.266 4.098 31.83 4.086 32.382C4.086 32.934 4.074 33.492 4.05 34.056C4.038 34.62 4.014 35.244 3.978 35.928C3.822 35.988 3.618 36.036 3.366 36.072C3.114 36.12 2.862 36.144 2.61 36.144C2.082 36.144 1.668 36.06 1.368 35.892C1.08 35.724 0.936 35.418 0.936 34.974L1.458 25.794C1.554 25.638 1.764 25.47 2.088 25.29C2.412 25.11 2.868 25.02 3.456 25.02C4.092 25.02 4.59 25.122 4.95 25.326C5.31 25.518 5.574 25.836 5.742 26.28C5.85 26.568 5.964 26.898 6.084 27.27C6.216 27.642 6.342 28.026 6.462 28.422C6.594 28.818 6.72 29.214 6.84 29.61C6.96 29.994 7.068 30.342 7.164 30.654H7.254C7.542 29.646 7.83 28.674 8.118 27.738C8.406 26.79 8.67 25.998 8.91 25.362C9.09 25.266 9.318 25.188 9.594 25.128C9.882 25.056 10.2 25.02 10.548 25.02C11.136 25.02 11.616 25.11 11.988 25.29C12.36 25.458 12.576 25.704 12.636 26.028C12.684 26.268 12.732 26.64 12.78 27.144C12.84 27.636 12.9 28.194 12.96 28.818C13.02 29.442 13.08 30.102 13.14 30.798C13.2 31.494 13.254 32.166 13.302 32.814C13.362 33.45 13.41 34.038 13.446 34.578C13.482 35.106 13.506 35.514 13.518 35.802C13.314 35.922 13.098 36.006 12.87 36.054C12.654 36.114 12.372 36.144 12.024 36.144C11.568 36.144 11.184 36.066 10.872 35.91C10.56 35.754 10.392 35.448 10.368 34.992C10.296 33.684 10.248 32.508 10.224 31.464C10.212 30.42 10.188 29.544 10.152 28.836H10.062C9.942 29.304 9.768 29.892 9.54 30.6C9.312 31.308 9.036 32.214 8.712 33.318ZM15.2078 24.822C15.2078 24.366 15.3578 23.982 15.6578 23.67C15.9698 23.358 16.3778 23.202 16.8818 23.202C17.3858 23.202 17.7878 23.358 18.0878 23.67C18.3998 23.982 18.5558 24.366 18.5558 24.822C18.5558 25.278 18.3998 25.662 18.0878 25.974C17.7878 26.286 17.3858 26.442 16.8818 26.442C16.3778 26.442 15.9698 26.286 15.6578 25.974C15.3578 25.662 15.2078 25.278 15.2078 24.822ZM18.4118 35.982C18.2798 36.006 18.0818 36.036 17.8178 36.072C17.5658 36.12 17.3078 36.144 17.0438 36.144C16.7798 36.144 16.5398 36.126 16.3238 36.09C16.1198 36.054 15.9458 35.982 15.8018 35.874C15.6578 35.766 15.5438 35.622 15.4598 35.442C15.3878 35.25 15.3518 35.004 15.3518 34.704V27.378C15.4838 27.354 15.6758 27.324 15.9278 27.288C16.1918 27.24 16.4558 27.216 16.7197 27.216C16.9838 27.216 17.2178 27.234 17.4218 27.27C17.6378 27.306 17.8178 27.378 17.9618 27.486C18.1058 27.594 18.2138 27.744 18.2858 27.936C18.3698 28.116 18.4118 28.356 18.4118 28.656V35.982ZM23.4198 32.994C23.4198 33.306 23.5158 33.528 23.7078 33.66C23.9118 33.792 24.1938 33.858 24.5538 33.858C24.7338 33.858 24.9198 33.846 25.1118 33.822C25.3038 33.786 25.4718 33.744 25.6158 33.696C25.7238 33.828 25.8138 33.978 25.8858 34.146C25.9698 34.302 26.0118 34.494 26.0118 34.722C26.0118 35.178 25.8378 35.55 25.4898 35.838C25.1538 36.126 24.5538 36.27 23.6898 36.27C22.6338 36.27 21.8178 36.03 21.2418 35.55C20.6778 35.07 20.3958 34.29 20.3958 33.21V25.506C20.5278 25.47 20.7138 25.434 20.9538 25.398C21.2058 25.35 21.4698 25.326 21.7458 25.326C22.2738 25.326 22.6818 25.422 22.9698 25.614C23.2698 25.794 23.4198 26.184 23.4198 26.784V27.936H25.7778C25.8498 28.068 25.9158 28.236 25.9758 28.44C26.0478 28.632 26.0838 28.848 26.0838 29.088C26.0838 29.508 25.9878 29.814 25.7958 30.006C25.6158 30.186 25.3698 30.276 25.0578 30.276H23.4198V32.994ZM30.6269 32.994C30.6269 33.306 30.7229 33.528 30.9149 33.66C31.1189 33.792 31.4009 33.858 31.7609 33.858C31.9409 33.858 32.1269 33.846 32.3189 33.822C32.5109 33.786 32.6789 33.744 32.8229 33.696C32.9309 33.828 33.0209 33.978 33.0929 34.146C33.1769 34.302 33.2189 34.494 33.2189 34.722C33.2189 35.178 33.0449 35.55 32.6969 35.838C32.3609 36.126 31.7609 36.27 30.8969 36.27C29.8409 36.27 29.0249 36.03 28.4489 35.55C27.8849 35.07 27.6029 34.29 27.6029 33.21V25.506C27.7349 25.47 27.9209 25.434 28.1609 25.398C28.4129 25.35 28.6769 25.326 28.9529 25.326C29.4809 25.326 29.8889 25.422 30.1769 25.614C30.4769 25.794 30.6269 26.184 30.6269 26.784V27.936H32.9849C33.0569 28.068 33.1229 28.236 33.1829 28.44C33.2549 28.632 33.2909 28.848 33.2909 29.088C33.2909 29.508 33.1949 29.814 33.0029 30.006C32.8229 30.186 32.5769 30.276 32.2649 30.276H30.6269V32.994ZM39.2944 36.288C38.5864 36.288 37.9264 36.192 37.3144 36C36.7144 35.796 36.1864 35.496 35.7304 35.1C35.2864 34.704 34.9324 34.206 34.6684 33.606C34.4164 33.006 34.2904 32.304 34.2904 31.5C34.2904 30.708 34.4164 30.03 34.6684 29.466C34.9324 28.89 35.2744 28.422 35.6944 28.062C36.1144 27.69 36.5944 27.42 37.1344 27.252C37.6744 27.072 38.2264 26.982 38.7904 26.982C39.4264 26.982 40.0024 27.078 40.5184 27.27C41.0464 27.462 41.4964 27.726 41.8684 28.062C42.2524 28.398 42.5464 28.8 42.7504 29.268C42.9664 29.736 43.0744 30.246 43.0744 30.798C43.0744 31.206 42.9604 31.518 42.7324 31.734C42.5044 31.95 42.1864 32.088 41.7784 32.148L37.3324 32.814C37.4644 33.21 37.7344 33.51 38.1424 33.714C38.5504 33.906 39.0184 34.002 39.5464 34.002C40.0384 34.002 40.5004 33.942 40.9324 33.822C41.3764 33.69 41.7364 33.54 42.0124 33.372C42.2044 33.492 42.3664 33.66 42.4984 33.876C42.6304 34.092 42.6964 34.32 42.6964 34.56C42.6964 35.1 42.4444 35.502 41.9404 35.766C41.5564 35.97 41.1244 36.108 40.6444 36.18C40.1644 36.252 39.7144 36.288 39.2944 36.288ZM38.7904 29.214C38.5024 29.214 38.2504 29.262 38.0344 29.358C37.8304 29.454 37.6624 29.58 37.5304 29.736C37.3984 29.88 37.2964 30.048 37.2244 30.24C37.1644 30.42 37.1284 30.606 37.1164 30.798L40.1944 30.294C40.1584 30.054 40.0264 29.814 39.7984 29.574C39.5704 29.334 39.2344 29.214 38.7904 29.214ZM50.0913 30.456C50.0913 30.084 49.9833 29.814 49.7673 29.646C49.5633 29.466 49.2813 29.376 48.9213 29.376C48.6813 29.376 48.4413 29.406 48.2013 29.466C47.9733 29.526 47.7753 29.616 47.6073 29.736V35.982C47.4873 36.018 47.2953 36.054 47.0313 36.09C46.7793 36.126 46.5153 36.144 46.2393 36.144C45.9753 36.144 45.7353 36.126 45.5193 36.09C45.3153 36.054 45.1413 35.982 44.9973 35.874C44.8533 35.766 44.7393 35.622 44.6553 35.442C44.5833 35.25 44.5473 35.004 44.5473 34.704V29.304C44.5473 28.98 44.6133 28.716 44.7453 28.512C44.8893 28.308 45.0813 28.122 45.3213 27.954C45.7293 27.666 46.2393 27.432 46.8513 27.252C47.4753 27.072 48.1653 26.982 48.9213 26.982C50.2773 26.982 51.3213 27.282 52.0533 27.882C52.7853 28.47 53.1513 29.292 53.1513 30.348V35.982C53.0313 36.018 52.8393 36.054 52.5753 36.09C52.3233 36.126 52.0593 36.144 51.7833 36.144C51.5193 36.144 51.2793 36.126 51.0633 36.09C50.8593 36.054 50.6853 35.982 50.5413 35.874C50.3973 35.766 50.2833 35.622 50.1993 35.442C50.1273 35.25 50.0913 35.004 50.0913 34.704V30.456Z" fill="black"/>
<path d="M72.4224 9L72.4224 14.0628C71.8583 17.4615 70.166 20.8461 72.4224 24.2308C74.1148 26.4872 75.0436 27.9454 83.7045 28.1795C104.576 28.7436 101.192 20.8461 98.3711 14.6117V9.5641L92.166 12.9487C88.1045 11.1436 82.0122 12.1966 78.6276 12.9487L72.4224 9Z" fill="black"/>
<path d="M72.4224 14.0628L72.9789 14.1552L72.9865 14.1093L72.9865 14.0628L72.4224 14.0628ZM72.4224 9L72.7253 8.52409C72.5516 8.41355 72.3315 8.40643 72.151 8.50551C71.9705 8.60458 71.8583 8.79411 71.8583 9L72.4224 9ZM78.6276 12.9487L78.3247 13.4246C78.451 13.5049 78.6039 13.5318 78.75 13.4994L78.6276 12.9487ZM92.166 12.9487L91.9369 13.4642C92.0974 13.5355 92.282 13.528 92.4362 13.4439L92.166 12.9487ZM98.3711 9.5641H98.9352C98.9352 9.36501 98.8303 9.18066 98.6591 9.07903C98.4879 8.9774 98.2758 8.97354 98.101 9.06888L98.3711 9.5641ZM98.3711 14.6117H97.807V14.7333L97.8572 14.8442L98.3711 14.6117ZM83.7045 28.1795L83.7197 27.6156L83.7045 28.1795ZM72.4224 24.2308L71.9531 24.5437C71.9589 24.5524 71.9649 24.5609 71.9712 24.5692L72.4224 24.2308ZM72.4224 14.0628L72.9865 14.0628L72.9865 9L72.4224 9L71.8583 9L71.8583 14.0628L72.4224 14.0628ZM72.4224 9L72.1196 9.47591L78.3247 13.4246L78.6276 12.9487L78.9304 12.4728L72.7253 8.52409L72.4224 9ZM78.6276 12.9487L78.75 13.4994C80.4296 13.1261 82.7643 12.6822 85.1732 12.553C87.593 12.4232 90.0262 12.615 91.9369 13.4642L92.166 12.9487L92.3951 12.4332C90.2443 11.4773 87.6007 11.293 85.1128 11.4264C82.6139 11.5605 80.2101 12.0192 78.5052 12.398L78.6276 12.9487ZM92.166 12.9487L92.4362 13.4439L98.6413 10.0593L98.3711 9.5641L98.101 9.06888L91.8959 12.4535L92.166 12.9487ZM98.3711 9.5641H97.807V14.6117H98.3711H98.9352V9.5641H98.3711ZM98.3711 14.6117L97.8572 14.8442C98.5659 16.4106 99.2828 18.0253 99.6561 19.5734C100.029 21.1204 100.037 22.5147 99.4231 23.6826C98.8139 24.8417 97.5269 25.8998 95.0386 26.6331C92.5462 27.3676 88.9114 27.7559 83.7197 27.6156L83.7045 28.1795L83.6893 28.7434C88.9335 28.8851 92.7025 28.4977 95.3575 27.7153C98.0167 26.9317 99.6208 25.7315 100.422 24.2075C101.218 22.6922 101.155 20.9785 100.753 19.3089C100.351 17.6404 99.5867 15.93 98.8851 14.3791L98.3711 14.6117ZM72.4224 24.2308L72.8918 23.9179C71.862 22.3731 71.7237 20.8303 71.9245 19.222C72.026 18.4092 72.213 17.589 72.4158 16.7406C72.6164 15.9014 72.8339 15.0293 72.9789 14.1552L72.4224 14.0628L71.866 13.9705C71.729 14.7958 71.5234 15.6212 71.3185 16.4783C71.1158 17.3261 70.915 18.2009 70.805 19.0822C70.5827 20.862 70.7265 22.7038 71.9531 24.5437L72.4224 24.2308ZM83.7045 28.1795L83.7197 27.6156C79.4004 27.4988 77.0978 27.0761 75.6786 26.4477C74.3022 25.8382 73.7242 25.0263 72.8737 23.8923L72.4224 24.2308L71.9712 24.5692C72.813 25.6916 73.5455 26.737 75.2218 27.4793C76.8554 28.2026 79.3476 28.626 83.6893 28.7434L83.7045 28.1795Z" fill="black"/>
<path d="M126 38.3333C126 29.8718 117.538 29.1196 112.462 29.8718L112.462 26.2051C89.3333 34.1025 69.0257 29.0256 60 26.2051L60 54.1282C68.4615 57.5128 89.8974 62.0256 112.462 54.1282V48.4871C118.291 48.6752 126 46.955 126 38.3333Z" fill="black"/>
<path d="M112.462 48.4871L111.897 48.4871V48.4871H112.462ZM112.462 54.1282L112.648 54.6606C112.874 54.5814 113.026 54.3679 113.026 54.1282H112.462ZM60 54.1282H59.4359C59.4359 54.3588 59.5763 54.5662 59.7905 54.6519L60 54.1282ZM60 26.2051L59.8247 25.6689C59.5928 25.7447 59.4359 25.9611 59.4359 26.2051L60 26.2051ZM112.462 26.2051L113.026 26.2051C113.026 25.977 112.888 25.7714 112.678 25.684L112.462 26.2051ZM112.462 33.8205L113.026 33.8205L113.026 29.8718L112.462 29.8718L111.897 29.8718L111.897 33.8205L112.462 33.8205ZM112.462 29.8718L112.544 30.4298C115.033 30.0611 118.3 30.072 120.917 31.1677C122.216 31.7117 123.337 32.5157 124.136 33.6588C124.933 34.7992 125.436 36.3158 125.436 38.3333H126H126.564C126.564 36.12 126.009 34.3695 125.061 33.0126C124.115 31.6584 122.804 30.7348 121.353 30.1271C118.469 28.9194 114.967 28.9303 112.379 29.3138L112.462 29.8718ZM126 38.3333H125.436C125.436 42.4353 123.623 44.8347 121.141 46.2215C118.614 47.6337 115.349 48.0159 112.48 47.9233L112.462 48.4871L112.443 49.051C115.403 49.1464 118.907 48.7626 121.692 47.2063C124.522 45.6246 126.564 42.853 126.564 38.3333H126ZM112.462 54.1282H113.026V48.4871H112.462H111.897V54.1282H112.462ZM60 54.1282L59.7905 54.6519C68.3479 58.0749 89.927 62.6129 112.648 54.6606L112.462 54.1282L112.275 53.5957C89.8678 61.4383 68.5751 56.9507 60.2095 53.6044L60 54.1282ZM60 26.2051L59.4359 26.2051L59.4359 54.1282H60H60.5641L60.5641 26.2051L60 26.2051ZM60 26.2051L59.8318 26.7435C68.9014 29.5778 89.3482 34.6935 112.644 26.7389L112.462 26.2051L112.279 25.6713C89.3185 33.5115 69.1499 28.4734 60.1683 25.6667L60 26.2051ZM112.462 29.8718L113.026 29.8718L113.026 26.2051L112.462 26.2051L111.897 26.2051L111.897 29.8718L112.462 29.8718ZM71.8462 23.6667L71.7372 23.1132C68.5299 23.7449 63.2472 24.55 59.8247 25.6689L60 26.2051L60.1753 26.7413C63.5109 25.6508 68.6533 24.8705 71.9552 24.2201L71.8462 23.6667ZM112.462 48.4871L113.026 48.4871L113.026 43.4102L112.462 43.4102L111.897 43.4102L111.897 48.4871L112.462 48.4871ZM112.462 26.2051L112.678 25.684C111.458 25.1782 109.403 24.7412 107.156 24.3317C104.847 23.911 102.402 23.5304 100.155 23.1121L100.051 23.6667L99.9481 24.2212C102.139 24.629 104.744 25.039 106.954 25.4416C109.225 25.8555 111.156 26.2747 112.245 26.7262L112.462 26.2051Z" fill="black"/>
<path d="M121 39.1799C121 44.3213 113.533 44.3213 113 43.7501L113 34.0385C116.2 34.0385 121 33.2157 121 39.1799Z" fill="white"/>
<circle cx="79.1917" cy="18.0256" r="1.69231" fill="white"/>
<path d="M80.3077 18.0256C80.3077 18.6487 79.8026 19.1538 79.1795 19.1538C78.5564 19.1538 78.0513 18.6487 78.0513 18.0256C78.0513 17.4025 78.5564 16.8974 79.1795 16.8974C79.8026 16.8974 80.3077 17.4025 80.3077 18.0256Z" fill="black"/>
<circle cx="90.4737" cy="18.0256" r="1.69231" fill="white"/>
<circle cx="90.4615" cy="18.0256" r="1.1282" fill="black"/>
<path d="M85.0994 20.4999C85.0128 20.6504 84.7956 20.6507 84.7086 20.5004L84.4523 20.0579C84.3652 19.9076 84.4735 19.7194 84.6472 19.7192L85.1586 19.7185C85.3323 19.7182 85.4411 19.9061 85.3545 20.0567L85.0994 20.4999Z" fill="white"/>
<path d="M16.712 51.318C16.556 51.45 16.352 51.558 16.1 51.642C15.86 51.714 15.578 51.75 15.254 51.75C14.822 51.75 14.462 51.696 14.174 51.588C13.898 51.48 13.718 51.294 13.634 51.03C13.298 49.974 13.022 49.122 12.806 48.474C12.59 47.814 12.422 47.238 12.302 46.746H12.212C12.176 47.454 12.146 48.102 12.122 48.69C12.11 49.266 12.098 49.83 12.086 50.382C12.086 50.934 12.074 51.492 12.05 52.056C12.038 52.62 12.014 53.244 11.978 53.928C11.822 53.988 11.618 54.036 11.366 54.072C11.114 54.12 10.862 54.144 10.61 54.144C10.082 54.144 9.668 54.06 9.368 53.892C9.08 53.724 8.936 53.418 8.936 52.974L9.458 43.794C9.554 43.638 9.764 43.47 10.088 43.29C10.412 43.11 10.868 43.02 11.456 43.02C12.092 43.02 12.59 43.122 12.95 43.326C13.31 43.518 13.574 43.836 13.742 44.28C13.85 44.568 13.964 44.898 14.084 45.27C14.216 45.642 14.342 46.026 14.462 46.422C14.594 46.818 14.72 47.214 14.84 47.61C14.96 47.994 15.068 48.342 15.164 48.654H15.254C15.542 47.646 15.83 46.674 16.118 45.738C16.406 44.79 16.67 43.998 16.91 43.362C17.09 43.266 17.318 43.188 17.594 43.128C17.882 43.056 18.2 43.02 18.548 43.02C19.136 43.02 19.616 43.11 19.988 43.29C20.36 43.458 20.576 43.704 20.636 44.028C20.684 44.268 20.732 44.64 20.78 45.144C20.84 45.636 20.9 46.194 20.96 46.818C21.02 47.442 21.08 48.102 21.14 48.798C21.2 49.494 21.254 50.166 21.302 50.814C21.362 51.45 21.41 52.038 21.446 52.578C21.482 53.106 21.506 53.514 21.518 53.802C21.314 53.922 21.098 54.006 20.87 54.054C20.654 54.114 20.372 54.144 20.024 54.144C19.568 54.144 19.184 54.066 18.872 53.91C18.56 53.754 18.392 53.448 18.368 52.992C18.296 51.684 18.248 50.508 18.224 49.464C18.212 48.42 18.188 47.544 18.152 46.836H18.062C17.942 47.304 17.768 47.892 17.54 48.6C17.312 49.308 17.036 50.214 16.712 51.318ZM23.227 45.378C23.347 45.342 23.533 45.306 23.785 45.27C24.049 45.234 24.319 45.216 24.595 45.216C24.859 45.216 25.093 45.234 25.297 45.27C25.513 45.306 25.693 45.378 25.837 45.486C25.981 45.594 26.089 45.744 26.161 45.936C26.245 46.116 26.287 46.356 26.287 46.656V50.526C26.287 51.018 26.407 51.372 26.647 51.588C26.887 51.792 27.235 51.894 27.691 51.894C27.967 51.894 28.189 51.87 28.357 51.822C28.537 51.774 28.675 51.726 28.771 51.678V45.378C28.891 45.342 29.077 45.306 29.329 45.27C29.593 45.234 29.863 45.216 30.139 45.216C30.403 45.216 30.637 45.234 30.841 45.27C31.057 45.306 31.237 45.378 31.381 45.486C31.525 45.594 31.633 45.744 31.705 45.936C31.789 46.116 31.831 46.356 31.831 46.656V52.128C31.831 52.728 31.579 53.178 31.075 53.478C30.655 53.742 30.151 53.94 29.563 54.072C28.987 54.216 28.357 54.288 27.673 54.288C27.025 54.288 26.425 54.216 25.873 54.072C25.333 53.928 24.865 53.706 24.469 53.406C24.073 53.106 23.767 52.722 23.551 52.254C23.335 51.774 23.227 51.198 23.227 50.526V45.378ZM37.9696 44.982C38.6536 44.982 39.2716 45.072 39.8236 45.252C40.3876 45.42 40.8616 45.642 41.2456 45.918C41.4856 46.086 41.6716 46.272 41.8036 46.476C41.9476 46.68 42.0196 46.944 42.0196 47.268V53.568C42.0196 54.204 41.8996 54.75 41.6596 55.206C41.4196 55.674 41.0896 56.058 40.6696 56.358C40.2616 56.67 39.7756 56.898 39.2116 57.042C38.6596 57.186 38.0656 57.258 37.4296 57.258C36.3376 57.258 35.4796 57.108 34.8556 56.808C34.2316 56.52 33.9196 56.046 33.9196 55.386C33.9196 55.11 33.9736 54.864 34.0816 54.648C34.2016 54.444 34.3336 54.288 34.4776 54.18C34.8256 54.372 35.2156 54.534 35.6476 54.666C36.0916 54.798 36.5476 54.864 37.0156 54.864C37.6636 54.864 38.1796 54.756 38.5636 54.54C38.9476 54.324 39.1396 53.976 39.1396 53.496V53.208C38.6476 53.424 38.0476 53.532 37.3396 53.532C36.7996 53.532 36.2836 53.454 35.7916 53.298C35.3116 53.13 34.8856 52.878 34.5136 52.542C34.1536 52.194 33.8596 51.75 33.6316 51.21C33.4156 50.67 33.3076 50.028 33.3076 49.284C33.3076 48.552 33.4216 47.916 33.6496 47.376C33.8896 46.836 34.2136 46.392 34.6216 46.044C35.0416 45.684 35.5336 45.42 36.0976 45.252C36.6736 45.072 37.2976 44.982 37.9696 44.982ZM39.0856 47.592C39.0016 47.544 38.8756 47.496 38.7076 47.448C38.5516 47.4 38.3536 47.376 38.1136 47.376C37.5256 47.376 37.0816 47.544 36.7816 47.88C36.4936 48.204 36.3496 48.672 36.3496 49.284C36.3496 49.98 36.4936 50.484 36.7816 50.796C37.0816 51.096 37.4596 51.246 37.9156 51.246C38.4076 51.246 38.7976 51.132 39.0856 50.904V47.592Z" fill="black"/>
</svg>
